<svg width="9" height="10" viewBox="0 0 9 10" fill="none" xmlns="http://www.w3.org/2000/svg">
<path d="M8.54248 2.15995L4.95739 0.118368C4.67014 -0.039456 4.31906 -0.039456 4.0425 0.118368L0.457407 2.15995C0.170155 2.31777 0 2.623 0 2.94921V7.04289C0 7.36911 0.180841 7.66377 0.457407 7.83216L4.0425 9.87374C4.18082 9.95794 4.34037 10 4.4999 10C4.65945 10 4.81907 9.95794 4.95731 9.87374L8.54259 7.82164C8.82985 7.66382 9 7.35858 9 7.03237V2.94921C9 2.623 8.81916 2.31784 8.54259 2.15995H8.54248ZM4.4042 0.739298C4.43611 0.71823 4.46802 0.71823 4.49993 0.71823C4.53184 0.71823 4.56374 0.728727 4.59565 0.739298L7.90415 2.63354L4.49991 4.56989L1.09567 2.63354L4.4042 0.739298ZM0.829746 7.20078C0.776539 7.16922 0.734018 7.10609 0.734018 7.04296V3.25447L4.13826 5.20133V9.08454L0.829746 7.20078ZM8.17014 7.20078L4.86164 9.09503V5.2013L8.26588 3.25444V7.03241C8.26588 7.10611 8.23398 7.15874 8.17016 7.20088L8.17014 7.20078Z" fill="#040034"/>
</svg>
