<svg width="13" height="13" viewBox="0 0 13 13" fill="none" xmlns="http://www.w3.org/2000/svg">
<path d="M12.4646 1.3958L11.6032 0.53438C10.8914 -0.178127 9.73135 -0.178127 9.01888 0.53438L1.26716 8.28703C1.21832 8.33587 1.18269 8.39592 1.16382 8.46238L0.0156474 12.4822C-0.0250175 12.6244 0.0150186 12.7765 0.118989 12.881C0.196652 12.9587 0.299889 13 0.406375 13C0.443896 13 0.481523 12.995 0.517785 12.9844L4.53759 11.8356C4.60394 11.8168 4.66473 11.7811 4.71357 11.7322L12.4648 3.98012C12.8103 3.6352 13 3.17622 13 2.68792C13 2.19962 12.8103 1.74075 12.4648 1.39572L12.4646 1.3958ZM4.21253 11.0843L0.996575 12.0028L1.91564 8.7873L8.15812 2.54472L10.4551 4.84172L4.21253 11.0843ZM11.8905 3.40627L11.0291 4.26769L8.73209 1.97069L9.5935 1.10927C9.98915 0.713613 10.6334 0.71423 11.0297 1.10927L11.8911 1.97069C12.0833 2.16228 12.1884 2.4177 12.1884 2.68875C12.1879 2.95926 12.082 3.21405 11.8905 3.40627Z" fill="#040034"/>
</svg>
