<svg width="20" height="20" viewBox="0 0 20 20" fill="none" xmlns="http://www.w3.org/2000/svg">
<circle cx="10" cy="10" r="9.5" stroke="#35383B"/>
<path d="M9.96 6.92C9.672 6.92 9.43733 6.83467 9.256 6.664C9.08533 6.48267 9 6.248 9 5.96C9 5.672 9.08533 5.44267 9.256 5.272C9.43733 5.09067 9.672 5 9.96 5C10.248 5 10.4773 5.09067 10.648 5.272C10.8293 5.44267 10.92 5.672 10.92 5.96C10.92 6.248 10.8293 6.48267 10.648 6.664C10.4773 6.83467 10.248 6.92 9.96 6.92ZM9.96 8.456C10.3135 8.456 10.6 8.74254 10.6 9.096V14.86C10.6 15.2135 10.3135 15.5 9.96 15.5C9.60654 15.5 9.32 15.2135 9.32 14.86V9.096C9.32 8.74254 9.60654 8.456 9.96 8.456Z" fill="#404040"/>
</svg>
